<svg width="14" height="15" viewBox="0 0 14 15" fill="none" xmlns="http://www.w3.org/2000/svg">
<g clip-path="url(#clip0_13_61)">
<rect width="13" height="14" transform="translate(0.961914 0.0909424)" fill="white"/>
<path d="M9.04263 1.40537V11.6901C9.04263 12.8418 9.81526 13.4822 10.6353 13.4822C11.3937 13.4822 12.2279 12.9368 12.2279 11.6901V1.48329C12.2279 0.429005 11.4695 -0.230835 10.6353 -0.230835C9.80104 -0.230835 9.04263 0.497181 9.04263 1.40537Z" fill="#F8AB00"/>
<path d="M4.8714 6.62571V11.6902C4.8714 12.8419 5.64402 13.4822 6.46405 13.4822C7.22245 13.4822 8.0567 12.9368 8.0567 11.6902V6.70363C8.0567 5.64934 7.29829 4.9895 6.46405 4.9895C5.6298 4.9895 4.8714 5.71752 4.8714 6.62571Z" fill="#E37300"/>
<path d="M3.88549 11.8459C3.88549 12.7493 3.17212 13.4821 2.29284 13.4821C1.41357 13.4821 0.700195 12.7493 0.700195 11.8459C0.700195 10.9426 1.41357 10.2097 2.29284 10.2097C3.17212 10.2097 3.88549 10.9426 3.88549 11.8459Z" fill="#E37300"/>
</g>
<defs>
<clipPath id="clip0_13_61">
<rect width="13" height="14" fill="white" transform="translate(0.961914 0.0909424)"/>
</clipPath>
</defs>
</svg>
