<svg width="14" height="14" viewBox="0 0 14 14" fill="none" xmlns="http://www.w3.org/2000/svg">
<rect width="14" height="14" fill="white"/>
<path d="M12.9194 2.69063C12.8529 2.65223 12.7774 2.63201 12.7006 2.63201C12.6238 2.63201 12.5484 2.65223 12.4819 2.69063L8.75 4.54125V3.0625C8.74977 2.98792 8.73049 2.91464 8.69397 2.84961C8.65746 2.78458 8.60492 2.72997 8.54136 2.69096C8.4778 2.65195 8.40533 2.62983 8.33081 2.62671C8.2563 2.62359 8.18223 2.63956 8.11562 2.67313L4.375 4.54125V1.3125C4.375 1.19647 4.32891 1.08519 4.24686 1.00314C4.16481 0.921094 4.05353 0.875 3.9375 0.875H1.3125C1.19647 0.875 1.08519 0.921094 1.00314 1.00314C0.921094 1.08519 0.875 1.19647 0.875 1.3125V12.25H13.125V3.0625C13.1251 2.98815 13.1063 2.91499 13.0704 2.84992C13.0344 2.78485 12.9824 2.73003 12.9194 2.69063ZM9.625 11.375H7.875V8.3125H9.625V11.375ZM12.25 11.375H10.5V7.875C10.5 7.75897 10.4539 7.64769 10.3719 7.56564C10.2898 7.48359 10.1785 7.4375 10.0625 7.4375H7.4375C7.32147 7.4375 7.21019 7.48359 7.12814 7.56564C7.04609 7.64769 7 7.75897 7 7.875V11.375H1.75V1.75H3.5V5.95875L7.875 3.77125V5.95875L12.25 3.77125V11.375Z" fill="black"/>
</svg>
