<svg width="14" height="14" viewBox="0 0 14 14" fill="none" xmlns="http://www.w3.org/2000/svg">
<g clip-path="url(#clip0_13_33)">
<path d="M7.16334 6.34276C6.72594 6.33815 6.29969 6.20424 5.93824 5.95789C5.5768 5.71154 5.29632 5.36376 5.13211 4.95833C4.96791 4.5529 4.92733 4.10796 5.01548 3.67951C5.10363 3.25107 5.31656 2.85829 5.62748 2.55061C5.93839 2.24293 6.33339 2.03412 6.76273 1.95046C7.19207 1.86681 7.63657 1.91205 8.04025 2.08048C8.44394 2.24892 8.78876 2.53303 9.03132 2.89704C9.27387 3.26104 9.40331 3.68867 9.40334 4.12609C9.39922 4.71676 9.16116 5.28172 8.7413 5.69721C8.32144 6.1127 7.75402 6.34483 7.16334 6.34276ZM7.16334 2.6872C6.87979 2.6918 6.60392 2.78008 6.37039 2.94096C6.13685 3.10184 5.95606 3.32813 5.85073 3.59143C5.74539 3.85472 5.7202 4.14327 5.77833 4.42083C5.83646 4.6984 5.97531 4.95259 6.17744 5.1515C6.37957 5.3504 6.63597 5.48515 6.91443 5.5388C7.19289 5.59246 7.481 5.56263 7.74256 5.45307C8.00413 5.34351 8.22749 5.15911 8.38459 4.92302C8.54169 4.68692 8.62552 4.40967 8.62556 4.12609C8.62145 3.7417 8.46534 3.37457 8.19134 3.10494C7.91734 2.83531 7.54774 2.68512 7.16334 2.6872Z" fill="black"/>
<path d="M7.16333 6.34276C6.72594 6.33815 6.29969 6.20424 5.93824 5.95789C5.5768 5.71154 5.29632 5.36376 5.13211 4.95833C4.96791 4.5529 4.92733 4.10796 5.01548 3.67951C5.10362 3.25107 5.31656 2.85829 5.62748 2.55061C5.93839 2.24293 6.33339 2.03412 6.76273 1.95046C7.19207 1.86681 7.63657 1.91205 8.04025 2.08048C8.44394 2.24892 8.78876 2.53303 9.03132 2.89704C9.27387 3.26104 9.40331 3.68867 9.40333 4.12609C9.39922 4.71676 9.16116 5.28172 8.7413 5.69721C8.32144 6.1127 7.75402 6.34483 7.16333 6.34276ZM7.16333 2.6872C6.87979 2.6918 6.60392 2.78008 6.37039 2.94096C6.13685 3.10184 5.95606 3.32813 5.85073 3.59143C5.74539 3.85472 5.7202 4.14327 5.77833 4.42083C5.83646 4.6984 5.97531 4.95259 6.17744 5.1515C6.37957 5.3504 6.63596 5.48515 6.91443 5.5388C7.19289 5.59246 7.481 5.56263 7.74256 5.45307C8.00413 5.34351 8.22749 5.15911 8.38459 4.92302C8.54169 4.68692 8.62552 4.40967 8.62556 4.12609C8.62145 3.7417 8.46534 3.37457 8.19134 3.10494C7.91734 2.83531 7.54774 2.68512 7.16333 2.6872ZM8.52056 6.86387C6.79566 6.56372 5.01992 6.83691 3.465 7.64165C3.35462 7.70293 3.26323 7.79339 3.20081 7.90314C3.1384 8.01288 3.10737 8.13767 3.11111 8.26387V9.64831C3.11111 9.75145 3.15208 9.85037 3.22502 9.9233C3.29795 9.99623 3.39686 10.0372 3.5 10.0372C3.60314 10.0372 3.70206 9.99623 3.77499 9.9233C3.84792 9.85037 3.88889 9.75145 3.88889 9.64831V8.31442C5.33076 7.59095 6.97044 7.36139 8.55556 7.66109L8.52056 6.86387Z" fill="black"/>
<path d="M12.8333 8.55563H10.2278V7.98008C10.2278 7.87694 10.1868 7.77802 10.1139 7.70509C10.041 7.63216 9.94204 7.59119 9.8389 7.59119C9.73576 7.59119 9.63684 7.63216 9.56391 7.70509C9.49098 7.77802 9.45001 7.87694 9.45001 7.98008V8.55563H6.61112C6.50798 8.55563 6.40906 8.5966 6.33613 8.66953C6.2632 8.74246 6.22223 8.84138 6.22223 8.94452V12.8334C6.22223 12.9365 6.2632 13.0355 6.33613 13.1084C6.40906 13.1813 6.50798 13.2223 6.61112 13.2223H12.8333C12.9365 13.2223 13.0354 13.1813 13.1083 13.1084C13.1813 13.0355 13.2222 12.9365 13.2222 12.8334V8.94452C13.2222 8.84138 13.1813 8.74246 13.1083 8.66953C13.0354 8.5966 12.9365 8.55563 12.8333 8.55563ZM12.4445 12.4445H7.00001V9.33341H9.45001V9.49285C9.45001 9.59599 9.49098 9.69491 9.56391 9.76784C9.63684 9.84077 9.73576 9.88174 9.8389 9.88174C9.94204 9.88174 10.041 9.84077 10.1139 9.76784C10.1868 9.69491 10.2278 9.59599 10.2278 9.49285V9.33341H12.4445V12.4445Z" fill="black"/>
<path d="M8.48166 10.6634H10.7994V11.2078H8.48166V10.6634ZM4.21555 4.76002C3.13889 4.77803 2.0809 5.04419 1.12388 5.5378C1.0198 5.59277 0.932618 5.675 0.871655 5.7757C0.810691 5.87639 0.77824 5.99176 0.777771 6.10946V7.31502C0.777771 7.41816 0.818743 7.51707 0.891674 7.59C0.964605 7.66294 1.06352 7.70391 1.16666 7.70391C1.2698 7.70391 1.36872 7.66294 1.44165 7.59C1.51458 7.51707 1.55555 7.41816 1.55555 7.31502V6.18724C2.46994 5.73209 3.48232 5.50905 4.50333 5.5378C4.36974 5.29407 4.27278 5.032 4.21555 4.76002ZM12.8761 5.53391C12.0178 5.08366 11.0745 4.81868 10.1072 4.75613C10.0503 5.02763 9.95466 5.28955 9.82333 5.53391C10.7345 5.55572 11.6296 5.77882 12.4444 6.18724V7.31502C12.4444 7.41816 12.4854 7.51707 12.5583 7.59C12.6313 7.66294 12.7302 7.70391 12.8333 7.70391C12.9365 7.70391 13.0354 7.66294 13.1083 7.59C13.1812 7.51707 13.2222 7.41816 13.2222 7.31502V6.10946C13.2225 5.99109 13.1903 5.87491 13.1293 5.77347C13.0683 5.67203 12.9808 5.58919 12.8761 5.53391ZM4.14555 4.12613V3.86557C3.8409 3.8248 3.56371 3.66811 3.37169 3.42811C3.17966 3.18811 3.0876 2.8833 3.11466 2.57713C3.14172 2.27096 3.28582 1.98702 3.51696 1.78442C3.7481 1.58182 4.04847 1.47617 4.35555 1.48946C4.67495 1.48888 4.98195 1.61308 5.2111 1.83557C5.41329 1.66881 5.63535 1.52774 5.87222 1.41557C5.60762 1.11133 5.25704 0.8944 4.8667 0.793379C4.47635 0.692358 4.06456 0.711987 3.68559 0.849679C3.30662 0.987371 2.97827 1.23666 2.74381 1.5647C2.50935 1.89273 2.3798 2.28411 2.37222 2.68724C2.38038 3.18065 2.57218 3.65329 2.91017 4.01285C3.24815 4.3724 3.70804 4.59305 4.19999 4.63169C4.167 4.4651 4.14878 4.29592 4.14555 4.12613ZM9.63277 0.711686C9.36552 0.711744 9.10097 0.765082 8.85458 0.868581C8.60818 0.972079 8.3849 1.12366 8.19777 1.31446C8.46068 1.40973 8.70929 1.54058 8.93666 1.70335C9.11821 1.57732 9.33056 1.50293 9.55107 1.48811C9.77158 1.47328 9.99198 1.51858 10.1888 1.61917C10.3856 1.71976 10.5514 1.87187 10.6685 2.05928C10.7856 2.24669 10.8497 2.46238 10.8539 2.68335C10.8514 2.91032 10.7848 3.13196 10.6616 3.3226C10.5384 3.51324 10.3637 3.66509 10.1578 3.76057C10.1734 3.88049 10.1812 4.00131 10.1811 4.12224C10.1801 4.27856 10.1671 4.43457 10.1422 4.58891C10.5659 4.47999 10.9416 4.23408 11.211 3.88944C11.4804 3.5448 11.6283 3.12077 11.6317 2.68335C11.6265 2.1573 11.4134 1.65466 11.0389 1.28523C10.6644 0.915802 10.1588 0.709605 9.63277 0.711686Z" fill="black"/>
</g>
<defs>
<clipPath id="clip0_13_33">
<rect width="14" height="14" fill="white"/>
</clipPath>
</defs>
</svg>
