<svg width="8" height="8" viewBox="0 0 8 8" fill="none" xmlns="http://www.w3.org/2000/svg">
<path d="M6.81619 6.81624H5.63085V4.9599C5.63085 4.51724 5.62294 3.9474 5.01435 3.9474C4.39697 3.9474 4.3025 4.42971 4.3025 4.92768V6.81612H3.11719V2.99874H4.2551V3.52043H4.27104C4.38491 3.32571 4.54947 3.16553 4.74719 3.05694C4.9449 2.94834 5.16837 2.89541 5.39379 2.90378C6.59519 2.90378 6.81669 3.69403 6.81669 4.72209L6.81619 6.81624ZM1.77969 2.47696C1.39979 2.47703 1.09175 2.16909 1.09169 1.78918C1.09163 1.40928 1.39954 1.10124 1.77944 1.10118C2.15935 1.10109 2.46738 1.40903 2.46744 1.78893C2.46747 1.97137 2.39504 2.14635 2.26606 2.27538C2.13708 2.40441 1.96213 2.47692 1.77969 2.47696ZM2.37238 6.81628H1.18579V2.99874H2.37235V6.81624L2.37238 6.81628ZM7.40713 0.000338106H0.590161C0.267973 -0.00328689 0.00375439 0.254807 -0.000183105 0.576994V7.4224C0.00362939 7.74474 0.267817 8.00309 0.590129 7.99971H7.40713C7.73013 8.00371 7.99535 7.74537 7.99982 7.4224V0.576463C7.99522 0.253651 7.72997 -0.00441189 7.40713 -0.000193144" fill="#0A66C2"/>
</svg>
