<svg width="24" height="24" viewBox="0 0 24 24" fill="none" xmlns="http://www.w3.org/2000/svg">
<path d="M22.4 0H1.6C0.716344 0 0 0.716344 0 1.6V22.4C0 23.2837 0.716344 24 1.6 24H22.4C23.2837 24 24 23.2837 24 22.4V1.6C24 0.716344 23.2837 0 22.4 0Z" fill="#335EEA"/>
<path fill-rule="evenodd" clip-rule="evenodd" d="M7.94312 15.3262C6.20239 14.2506 5.04004 12.3072 5.04004 10.0887C5.04004 6.70384 7.74528 3.95996 11.0824 3.95996C11.5359 3.95996 11.9777 4.01064 12.4029 4.10674L11.6114 5.12974C11.4377 5.11088 11.2611 5.10121 11.0824 5.10121C8.3667 5.10121 6.16521 7.33414 6.16521 10.0887C6.16521 11.827 7.04209 13.3577 8.37167 14.2503L7.94312 15.3262ZM14.4497 15.1781C13.4874 15.8343 12.3289 16.2172 11.0824 16.2172C10.4372 16.2172 9.8155 16.1147 9.23249 15.9247L10.0228 14.9599C10.3641 15.0359 10.7185 15.076 11.0824 15.076C13.798 15.076 15.9996 12.8431 15.9996 10.0887C15.9996 8.15346 14.9129 6.47576 13.3249 5.64889L13.7478 4.58699C15.7483 5.58594 17.1247 7.67426 17.1247 10.0887C17.1247 11.3587 16.7437 12.5387 16.0914 13.5171L16.7947 14.0667L16.9229 14.4635C17.0081 14.8318 17.4106 15.1172 18.1321 15.3529C18.2064 15.3772 18.3259 15.4176 18.4904 15.4739C18.5417 15.4915 18.5821 15.5104 18.6249 15.5304L18.6597 15.5466C18.7511 15.5884 18.8491 15.6519 18.9827 15.7718C19.3425 16.0951 19.8564 16.7659 20.5241 17.7843C20.8867 18.3125 20.7941 18.8475 20.2463 19.3898C19.7246 19.9018 19.1281 19.9256 18.4566 19.4614C17.7852 18.9972 17.2461 18.5915 16.8393 18.2445C16.7941 18.1851 16.7437 18.129 16.6951 18.0748C16.6222 17.9935 16.5532 17.9167 16.511 17.8396C16.3795 17.5987 16.1916 17.1102 16.0202 16.6487C15.8535 16.1996 15.696 16.1396 15.3017 16.0207C15.2377 16.0015 15.1281 15.9619 14.9724 15.9018L14.4497 15.1781ZM13.0975 4.37081L8.26178 10.6349L10.6341 10.5548L8.65739 15.5174L14.2442 8.6365L11.3985 8.63602L13.0975 4.37081Z" fill="white" stroke="white" stroke-width="0.4"/>
</svg>
