<svg width="10" height="9" viewBox="0 0 10 9" fill="none" xmlns="http://www.w3.org/2000/svg">
<path d="M8.4375 2.1875H6.875V1.875C6.875 1.62636 6.77623 1.3879 6.60041 1.21209C6.4246 1.03627 6.18614 0.9375 5.9375 0.9375H4.0625C3.81386 0.9375 3.5754 1.03627 3.39959 1.21209C3.22377 1.3879 3.125 1.62636 3.125 1.875V2.1875H1.5625C1.39674 2.1875 1.23777 2.25335 1.12056 2.37056C1.00335 2.48777 0.9375 2.64674 0.9375 2.8125V7.8125C0.9375 7.97826 1.00335 8.13723 1.12056 8.25444C1.23777 8.37165 1.39674 8.4375 1.5625 8.4375H8.4375C8.60326 8.4375 8.76223 8.37165 8.87944 8.25444C8.99665 8.13723 9.0625 7.97826 9.0625 7.8125V2.8125C9.0625 2.64674 8.99665 2.48777 8.87944 2.37056C8.76223 2.25335 8.60326 2.1875 8.4375 2.1875ZM3.75 1.875C3.75 1.79212 3.78292 1.71263 3.84153 1.65403C3.90013 1.59542 3.97962 1.5625 4.0625 1.5625H5.9375C6.02038 1.5625 6.09987 1.59542 6.15847 1.65403C6.21708 1.71263 6.25 1.79212 6.25 1.875V2.1875H3.75V1.875ZM6.25 2.8125V7.8125H3.75V2.8125H6.25ZM1.5625 2.8125H3.125V7.8125H1.5625V2.8125ZM8.4375 7.8125H6.875V2.8125H8.4375V7.8125Z" fill="#909090"/>
</svg>
