<svg width="6" height="6" viewBox="0 0 6 6" fill="none" xmlns="http://www.w3.org/2000/svg">
<path d="M5.65 6C4.93333 6 4.23478 5.84022 3.55433 5.52067C2.87389 5.20111 2.27111 4.77889 1.746 4.254C1.22089 3.72911 0.798667 3.12633 0.479333 2.44567C0.16 1.765 0.000222222 1.06644 0 0.35C0 0.25 0.0333333 0.166667 0.1 0.1C0.166667 0.0333333 0.25 0 0.35 0H1.7C1.77778 0 1.84722 0.025 1.90833 0.075C1.96944 0.125 2.00556 0.188889 2.01667 0.266667L2.23333 1.43333C2.24444 1.51111 2.243 1.582 2.229 1.646C2.215 1.71 2.18311 1.76689 2.13333 1.81667L1.33333 2.63333C1.56667 3.03333 1.85833 3.40833 2.20833 3.75833C2.55833 4.10833 2.94444 4.41111 3.36667 4.66667L4.15 3.88333C4.2 3.83333 4.26533 3.79589 4.346 3.771C4.42667 3.74611 4.50578 3.73911 4.58333 3.75L5.73333 3.98333C5.81111 4 5.875 4.03756 5.925 4.096C5.975 4.15444 6 4.22244 6 4.3V5.65C6 5.75 5.96667 5.83333 5.9 5.9C5.83333 5.96667 5.75 6 5.65 6Z" fill="#A5A5A5"/>
</svg>
