<svg width="8" height="6" viewBox="0 0 8 6" fill="none" xmlns="http://www.w3.org/2000/svg">
<path d="M7.33332 0.968994C7.08345 1.07812 6.81881 1.14967 6.54799 1.18133C6.83225 1.0144 7.04601 0.749695 7.14932 0.43666C6.87999 0.593436 6.58624 0.703861 6.28032 0.763327C6.15151 0.628395 5.99655 0.521123 5.82491 0.448053C5.65327 0.374983 5.46854 0.337649 5.28199 0.338327C4.52666 0.338327 3.91432 0.94166 3.91432 1.68499C3.91432 1.79033 3.92632 1.89333 3.94966 1.99166C3.40785 1.96589 2.87736 1.82746 2.39205 1.58521C1.90673 1.34295 1.47724 1.00219 1.13099 0.58466C1.0096 0.789461 0.945795 1.02325 0.946323 1.26133C0.946555 1.48398 1.00227 1.70307 1.10842 1.89879C1.21457 2.09451 1.36782 2.2607 1.55432 2.38233C1.33748 2.37533 1.12533 2.31744 0.93499 2.21333V2.22999C0.93499 2.88266 1.40666 3.42699 2.03166 3.55099C1.91419 3.58216 1.79318 3.59796 1.67166 3.59799C1.58332 3.59799 1.49766 3.58966 1.41399 3.57299C1.50335 3.8423 1.67436 4.0771 1.90326 4.24477C2.13217 4.41245 2.4076 4.50468 2.69132 4.50866C2.20468 4.88351 1.60726 5.08601 0.99299 5.08433C0.882323 5.08433 0.773656 5.07766 0.666656 5.06566C1.29374 5.46256 2.02085 5.67275 2.76299 5.67166C5.27866 5.67166 6.65399 3.61933 6.65399 1.83966L6.64932 1.66533C6.91761 1.47655 7.14937 1.24061 7.33332 0.968994Z" fill="#3DB7FC" fill-opacity="0.98"/>
</svg>
