<svg width="16" height="12" viewBox="0 0 16 12" fill="none" xmlns="http://www.w3.org/2000/svg">
<path d="M7.82376 7.8087C8.45192 7.2807 8.90249 6.57228 9.11437 5.77952C9.32625 4.98676 9.28918 4.14801 9.00819 3.37703C8.72721 2.60605 8.2159 1.94014 7.54362 1.46961C6.87133 0.999081 6.0706 0.746704 5.25001 0.746704C4.42942 0.746704 3.62868 0.999081 2.9564 1.46961C2.28411 1.94014 1.7728 2.60605 1.49182 3.37703C1.21083 4.14801 1.17376 4.98676 1.38564 5.77952C1.59752 6.57228 2.0481 7.2807 2.67626 7.8087C1.69537 8.25222 0.845328 8.94104 0.208131 9.8087C0.0904412 9.96907 0.0412796 10.1696 0.0714612 10.3662C0.101643 10.5629 0.208695 10.7394 0.369069 10.8571C0.529442 10.9748 0.729998 11.024 0.926618 10.9938C1.12324 10.9636 1.29982 10.8566 1.41751 10.6962C1.85859 10.0938 2.43548 9.60383 3.10136 9.26609C3.76725 8.92835 4.50337 8.75234 5.25001 8.75234C5.99664 8.75234 6.73276 8.92835 7.39865 9.26609C8.06453 9.60383 8.64142 10.0938 9.08251 10.6962C9.2002 10.8567 9.37681 10.9638 9.57348 10.994C9.77016 11.0243 9.9708 10.9751 10.1313 10.8574C10.2917 10.7398 10.3988 10.5631 10.4291 10.3665C10.4593 10.1698 10.4102 9.96915 10.2925 9.8087C9.65493 8.94115 8.80472 8.25237 7.82376 7.8087ZM2.75001 4.74995C2.75001 4.2555 2.89663 3.77215 3.17133 3.36102C3.44604 2.9499 3.83648 2.62947 4.2933 2.44025C4.75011 2.25103 5.25278 2.20152 5.73773 2.29799C6.22268 2.39445 6.66814 2.63255 7.01777 2.98218C7.3674 3.33181 7.60551 3.77727 7.70197 4.26222C7.79843 4.74718 7.74892 5.24984 7.55971 5.70666C7.37049 6.16347 7.05005 6.55392 6.63893 6.82862C6.22781 7.10333 5.74446 7.24995 5.25001 7.24995C4.58697 7.24995 3.95108 6.98656 3.48224 6.51772C3.0134 6.04887 2.75001 5.41299 2.75001 4.74995ZM15.6313 10.8543C15.5519 10.9127 15.4617 10.9548 15.3661 10.9783C15.2704 11.0018 15.171 11.0062 15.0736 10.9913C14.9762 10.9764 14.8827 10.9424 14.7984 10.8914C14.7142 10.8403 14.6408 10.7731 14.5825 10.6937C14.1403 10.0924 13.5632 9.60333 12.8976 9.26573C12.2319 8.92814 11.4964 8.75147 10.75 8.74995C10.5511 8.74995 10.3603 8.67093 10.2197 8.53028C10.079 8.38963 10 8.19886 10 7.99995C10 7.80104 10.079 7.61027 10.2197 7.46962C10.3603 7.32897 10.5511 7.24995 10.75 7.24995C11.1181 7.24952 11.4816 7.1678 11.8144 7.01064C12.1473 6.85349 12.4414 6.62476 12.6756 6.3408C12.9098 6.05685 13.0785 5.72467 13.1695 5.36799C13.2605 5.01132 13.2716 4.63895 13.202 4.27748C13.1325 3.91601 12.9839 3.57436 12.767 3.27694C12.5502 2.97952 12.2703 2.73367 11.9474 2.55694C11.6245 2.38021 11.2665 2.27696 10.8991 2.25458C10.5317 2.23219 10.1638 2.29122 9.82188 2.42745C9.73028 2.46496 9.63216 2.48396 9.53317 2.48336C9.43419 2.48277 9.3363 2.46258 9.24516 2.42398C9.15401 2.38537 9.07141 2.3291 9.00212 2.25842C8.93282 2.18773 8.87821 2.10403 8.84142 2.01214C8.80463 1.92024 8.78639 1.82198 8.78776 1.723C8.78913 1.62402 8.81008 1.5263 8.8494 1.43546C8.88872 1.34462 8.94563 1.26246 9.01685 1.19372C9.08808 1.12498 9.1722 1.07102 9.26438 1.03495C10.1471 0.681539 11.1268 0.654119 12.0279 0.957604C12.929 1.26109 13.6925 1.87563 14.1815 2.69104C14.6705 3.50645 14.8531 4.4694 14.6965 5.40723C14.5399 6.34506 14.0543 7.19644 13.3269 7.8087C14.3078 8.25222 15.1578 8.94104 15.795 9.8087C15.9115 9.96922 15.9597 10.1694 15.929 10.3653C15.8983 10.5613 15.7913 10.7371 15.6313 10.8543Z" fill="black"/>
</svg>
