<svg width="24" height="24" viewBox="0 0 24 24" fill="none" xmlns="http://www.w3.org/2000/svg">
<path d="M12 0.333313C10.4679 0.333313 8.95084 0.63508 7.53537 1.22139C6.1199 1.80769 4.83378 2.66705 3.75043 3.7504C1.56251 5.93833 0.333344 8.90579 0.333344 12C0.333344 15.0942 1.56251 18.0616 3.75043 20.2496C4.83378 21.3329 6.1199 22.1923 7.53537 22.7786C8.95084 23.3649 10.4679 23.6666 12 23.6666C15.0942 23.6666 18.0617 22.4375 20.2496 20.2496C22.4375 18.0616 23.6667 15.0942 23.6667 12C23.6667 10.4679 23.3649 8.9508 22.7786 7.53534C22.1923 6.11987 21.3329 4.83375 20.2496 3.7504C19.1662 2.66705 17.8801 1.80769 16.4647 1.22139C15.0492 0.63508 13.5321 0.333313 12 0.333313ZM6.24834 19.3266C6.75001 18.2766 9.80668 17.25 12 17.25C14.1933 17.25 17.25 18.2766 17.7517 19.3266C16.1176 20.6287 14.0894 21.3363 12 21.3333C9.83001 21.3333 7.83501 20.5866 6.24834 19.3266ZM19.42 17.635C17.7517 15.605 13.7033 14.9166 12 14.9166C10.2967 14.9166 6.24834 15.605 4.58001 17.635C3.33889 16.0187 2.66629 14.0378 2.66668 12C2.66668 6.85498 6.85501 2.66665 12 2.66665C17.145 2.66665 21.3333 6.85498 21.3333 12C21.3333 14.1233 20.61 16.0833 19.42 17.635ZM12 4.99998C9.73668 4.99998 7.91668 6.81998 7.91668 9.08331C7.91668 11.3466 9.73668 13.1666 12 13.1666C14.2633 13.1666 16.0833 11.3466 16.0833 9.08331C16.0833 6.81998 14.2633 4.99998 12 4.99998ZM12 10.8333C11.5359 10.8333 11.0908 10.6489 10.7626 10.3208C10.4344 9.99256 10.25 9.54744 10.25 9.08331C10.25 8.61918 10.4344 8.17407 10.7626 7.84588C11.0908 7.51769 11.5359 7.33331 12 7.33331C12.4641 7.33331 12.9093 7.51769 13.2374 7.84588C13.5656 8.17407 13.75 8.61918 13.75 9.08331C13.75 9.54744 13.5656 9.99256 13.2374 10.3208C12.9093 10.6489 12.4641 10.8333 12 10.8333Z" fill="black"/>
</svg>
